<?xml version="1.0" standalone="no"?>
<!DOCTYPE svg PUBLIC "-//W3C//DTD SVG 20010904//EN"
 "http://www.w3.org/TR/2001/REC-SVG-20010904/DTD/svg10.dtd">
<svg version="1.0" xmlns="http://www.w3.org/2000/svg"
 width="700.000000pt" height="700.000000pt" viewBox="0 0 700.000000 700.000000"
 preserveAspectRatio="xMidYMid meet">
<metadata>
Created by potrace 1.14, written by Peter Selinger 2001-2017
</metadata>
<g transform="translate(0.000000,700.000000) scale(0.100000,-0.100000)"
fill="#000000" stroke="none">
<path d="M3425 6959 c-38 -23 -88 -51 -110 -64 -143 -82 -634 -365 -703 -406
-45 -27 -85 -49 -88 -49 -2 0 -17 -8 -32 -19 -21 -15 -397 -233 -592 -343 -19
-11 -183 -106 -365 -211 -181 -104 -346 -199 -365 -210 -19 -11 -73 -42 -120
-70 -47 -27 -99 -58 -117 -68 -61 -34 -458 -262 -461 -265 -5 -3 -5 -3505 0
-3508 2 -2 214 -124 473 -273 259 -149 486 -280 505 -291 19 -12 46 -27 60
-35 14 -7 129 -73 255 -147 127 -73 505 -291 840 -485 336 -194 674 -389 752
-435 l143 -82 412 238 c227 131 568 328 758 437 190 110 433 250 540 312 107
62 283 163 390 225 107 62 209 121 225 130 27 15 169 97 560 323 77 44 141 82
143 83 4 2 4 3506 0 3509 -3 2 -1472 850 -1538 887 -19 11 -123 71 -230 133
-107 62 -211 122 -230 132 -19 11 -254 147 -521 301 -267 155 -492 284 -500
287 -8 2 -45 -14 -84 -36z m169 -338 c44 -27 101 -60 126 -74 25 -13 144 -82
265 -152 121 -70 324 -187 450 -260 127 -73 329 -190 450 -260 121 -70 234
-136 251 -145 17 -10 123 -71 235 -136 112 -64 263 -151 334 -192 186 -107
431 -249 493 -285 l52 -31 0 -1587 0 -1587 -77 -44 c-43 -24 -370 -213 -728
-420 -357 -206 -663 -383 -680 -392 -16 -9 -37 -21 -45 -26 -8 -5 -141 -82
-295 -171 -154 -88 -309 -178 -345 -199 -265 -155 -572 -330 -580 -330 -5 0
-62 31 -127 69 -65 37 -437 253 -828 478 -390 225 -784 453 -875 505 -91 53
-183 106 -205 118 -22 12 -44 26 -50 30 -5 4 -31 19 -56 33 -25 14 -133 76
-240 137 -208 121 -223 130 -311 179 l-58 33 0 1588 0 1588 218 125 c119 68
273 157 342 197 69 40 141 81 160 92 19 11 193 111 385 223 193 111 557 321
810 467 253 146 541 313 640 371 99 58 186 106 194 106 7 1 50 -21 95 -48z"/>
<path d="M2527 4872 c-3 -4 -4 -722 -3 -1597 l1 -1590 470 0 c259 0 495 4 525
8 176 26 403 116 507 202 7 5 32 26 56 45 133 108 264 305 341 513 87 234 128
493 130 832 2 238 -13 410 -50 575 -3 14 -8 39 -11 55 -11 65 -83 265 -123
345 -175 348 -438 546 -800 604 -83 14 -1036 21 -1043 8z m962 -526 c145 -38
246 -125 325 -283 38 -77 91 -249 100 -329 3 -27 8 -59 10 -71 10 -50 19 -217
20 -358 0 -138 -11 -362 -19 -375 -2 -3 -6 -28 -9 -56 -7 -67 -29 -163 -56
-239 -11 -33 -22 -64 -24 -70 -6 -26 -58 -115 -91 -160 -21 -27 -61 -68 -89
-91 -105 -84 -197 -110 -398 -113 -137 -1 -138 -1 -139 21 -4 110 -1 2127 3
2134 11 16 296 9 367 -10z"/>
</g>
</svg>
